<svg width="1307" height="73" viewBox="0 0 1307 73" fill="none" xmlns="http://www.w3.org/2000/svg">
<path d="M4 19.2775C148.985 9.29458 294.464 14.8008 439.448 24.7838C607.463 63.2182 689.9 47.2454 874.403 24.7838C1019.39 14.8008 1152.02 15.7323 1297 25.7152" stroke="#F9F9F9" stroke-width="8" stroke-linecap="round"/>
<path d="M668.5 58.6345C620 63.6345 565.288 54.906 480 42.2102C523.239 56.4531 608.773 72.2635 668.5 67.1345C728.227 62.0055 836.82 43.7724 894.564 42.2103C865.649 35.7909 717 53.6345 668.5 58.6345Z" fill="#F3F4F8"/>
<path d="M4 30.2775C148.985 20.2946 294.464 25.8008 439.448 35.7838C607.463 74.2182 689.9 58.2454 874.403 35.7838C1019.39 25.8008 1152.02 26.7323 1297 36.7152" stroke="#D8D8D8" stroke-linecap="round" stroke-dasharray="6 6"/>
<path d="M0 18.9778C254.949 -7 251.5 -6.50022 475 23.4999C346.5 11.2011 324 10.0622 247 9.5C170 8.93777 140.5 12 0 18.9778Z" fill="#FFCD1A"/>
<path d="M863.48 18.4997C1041.5 -4.50024 1157.5 -5.50014 1306.55 23.0202C1206.68 15.6756 1144.57 11.9173 1088.5 11.4998C1026.08 11.035 970.426 14.5489 863.48 18.4997Z" fill="#ADB7D1"/>
</svg>
