<svg width="320" height="500" viewBox="0 0 320 500" fill="none" xmlns="http://www.w3.org/2000/svg">
<g filter="url(#filter0_d_49_63)">
<path d="M106.523 41C106.523 32.1635 113.686 25 122.523 25H319.822V406.929H122.523C113.686 406.929 106.523 399.765 106.523 390.929V41Z" fill="white"/>
<path d="M107.023 41C107.023 32.4396 113.963 25.5 122.523 25.5H319.322V406.429H122.523C113.963 406.429 107.023 399.489 107.023 390.929V41Z" stroke="#F5F5F5"/>
</g>
<circle cx="128.858" cy="47.3349" r="4.46701" fill="#FF0000"/>
<circle cx="146.726" cy="47.3349" r="4.46701" fill="#FFCD1A"/>
<circle cx="164.594" cy="47.3349" r="4.46701" fill="#0EE44A"/>
<rect x="122.157" y="68.5532" width="87.1066" height="318.274" rx="10" fill="#F9F9F9"/>
<rect x="128.858" y="135.558" width="67.0051" height="6.70051" rx="3.35025" fill="#FFE0E0"/>
<rect x="128.858" y="169.061" width="67.0051" height="6.70051" rx="3.35025" fill="#EFEFEF"/>
<line x1="141.509" y1="156.41" x2="129.608" y2="156.41" stroke="#E1E1E1" stroke-width="1.5" stroke-linecap="round"/>
<rect x="128.858" y="202.563" width="67.0051" height="6.70051" rx="3.35025" fill="#EFEFEF"/>
<line x1="141.509" y1="189.912" x2="129.608" y2="189.912" stroke="#E1E1E1" stroke-width="1.5" stroke-linecap="round"/>
<rect x="128.858" y="236.066" width="67.0051" height="6.70051" rx="3.35025" fill="#EFEFEF"/>
<line x1="141.509" y1="223.415" x2="129.608" y2="223.415" stroke="#E1E1E1" stroke-width="1.5" stroke-linecap="round"/>
<rect x="128.858" y="269.569" width="67.0051" height="6.70051" rx="3.35025" fill="#EFEFEF"/>
<line x1="141.509" y1="256.917" x2="129.608" y2="256.917" stroke="#E1E1E1" stroke-width="1.5" stroke-linecap="round"/>
<rect x="128.858" y="303.071" width="67.0051" height="6.70051" rx="3.35025" fill="#EFEFEF"/>
<line x1="141.509" y1="290.42" x2="129.608" y2="290.42" stroke="#E1E1E1" stroke-width="1.5" stroke-linecap="round"/>
<line x1="141.509" y1="323.923" x2="129.608" y2="323.923" stroke="#E1E1E1" stroke-width="1.5" stroke-linecap="round"/>
<rect x="128.858" y="344.391" width="67.0051" height="24.5685" rx="4" fill="#FFE0E0"/>
<path d="M146.389 88.969C137.459 88.8484 130.168 96.1389 130.289 105.069C130.408 113.634 137.382 120.608 145.946 120.727C154.878 120.849 162.167 113.558 162.045 104.628C161.927 96.0618 154.954 89.0881 146.389 88.969ZM156.04 113.951C156.01 113.984 155.972 114.01 155.931 114.027C155.889 114.044 155.845 114.051 155.8 114.049C155.755 114.047 155.711 114.035 155.672 114.013C155.632 113.992 155.598 113.963 155.571 113.927C154.888 113.034 154.052 112.269 153.102 111.668C151.158 110.421 148.695 109.734 146.168 109.734C143.64 109.734 141.177 110.421 139.234 111.668C138.283 112.268 137.447 113.033 136.764 113.926C136.737 113.962 136.703 113.992 136.663 114.013C136.624 114.034 136.58 114.046 136.535 114.048C136.491 114.051 136.446 114.043 136.404 114.026C136.363 114.009 136.326 113.984 136.295 113.951C134.055 111.532 132.786 108.373 132.732 105.077C132.607 97.6481 138.703 91.4302 146.135 91.4119C153.566 91.3936 159.603 97.4283 159.603 104.848C159.606 108.223 158.333 111.475 156.04 113.951Z" fill="#F2F2F2"/>
<path d="M146.168 96.2976C144.662 96.2976 143.301 96.8618 142.334 97.887C141.367 98.9123 140.883 100.33 140.992 101.851C141.214 104.848 143.535 107.291 146.168 107.291C148.8 107.291 151.117 104.848 151.343 101.852C151.456 100.345 150.976 98.9405 149.993 97.8962C149.022 96.8656 147.663 96.2976 146.168 96.2976Z" fill="#F2F2F2"/>
<path fill-rule="evenodd" clip-rule="evenodd" d="M223.782 105.761L211.202 107.025L223.782 113.653V152.01C223.782 155.876 226.916 159.01 230.782 159.01H319.822V105.406H227.874L227.885 105.348L227.31 105.406H223.782V105.761Z" fill="#F9F9F9"/>
<path d="M233.833 127.741C233.833 126.508 234.833 125.508 236.066 125.508H319.822V129.975H236.066C234.833 129.975 233.833 128.975 233.833 127.741Z" fill="#EFEFEF"/>
<rect x="233.833" y="141.142" width="52.4873" height="4.46701" rx="2.2335" fill="#EFEFEF"/>
<path d="M239.416 179.411C239.416 175.545 242.55 172.411 246.416 172.411H319.822V219.315H246.416C242.55 219.315 239.416 216.181 239.416 212.315V179.411Z" fill="#FFFCF3"/>
<path d="M291.904 202.564C291.904 201.33 292.904 200.33 294.137 200.33H319.822V204.797H294.137C292.904 204.797 291.904 203.797 291.904 202.564Z" fill="#FFF2C5"/>
<path d="M256.168 189.162C256.168 187.929 257.168 186.929 258.401 186.929H319.822V191.396H258.401C257.168 191.396 256.168 190.396 256.168 189.162Z" fill="#FFF2C5"/>
<path fill-rule="evenodd" clip-rule="evenodd" d="M223.782 233.128L211.202 234.392L223.782 241.021V279.378C223.782 283.244 226.916 286.378 230.782 286.378H319.822V232.774H227.874L227.885 232.716L227.31 232.774H223.782V233.128Z" fill="#F9F9F9"/>
<path d="M233.833 255.109C233.833 253.875 234.833 252.875 236.066 252.875H319.822V257.342H236.066C234.833 257.342 233.833 256.342 233.833 255.109Z" fill="#EFEFEF"/>
<rect x="233.833" y="268.51" width="52.4873" height="4.46701" rx="2.2335" fill="#EFEFEF"/>
<path d="M239.416 306.779C239.416 302.913 242.55 299.779 246.416 299.779H319.822V346.682H246.416C242.55 346.682 239.416 343.548 239.416 339.682V306.779Z" fill="#FFFCF3"/>
<path d="M291.904 329.931C291.904 328.697 292.904 327.697 294.137 327.697H319.822V332.164H294.137C292.904 332.164 291.904 331.164 291.904 329.931Z" fill="#FFF2C5"/>
<path d="M256.168 316.53C256.168 315.296 257.168 314.296 258.401 314.296H319.822V318.763H258.401C257.168 318.763 256.168 317.763 256.168 316.53Z" fill="#FFF2C5"/>
<path d="M211.498 47.8934C211.498 40.8006 217.247 35.0508 224.34 35.0508H319.822V60.7361H224.34C217.247 60.7361 211.498 54.9862 211.498 47.8934Z" fill="#F2F4F7"/>
<path d="M227.513 40.7742C226.361 40.7742 225.235 41.1158 224.277 41.7558C223.319 42.3959 222.572 43.3056 222.131 44.3699C221.69 45.4343 221.575 46.6055 221.8 47.7354C222.025 48.8653 222.579 49.9032 223.394 50.7178C224.209 51.5324 225.246 52.0872 226.376 52.3119C227.506 52.5367 228.677 52.4213 229.742 51.9805C230.806 51.5396 231.716 50.793 232.356 49.8351C232.996 48.8772 233.338 47.7511 233.338 46.599C233.338 45.0542 232.724 43.5727 231.631 42.4803C230.539 41.388 229.058 40.7743 227.513 40.7742V40.7742Z" stroke="#ADB7D1" stroke-miterlimit="10"/>
<path d="M231.858 50.9448L235.926 55.0128" stroke="#ADB7D1" stroke-miterlimit="10" stroke-linecap="round"/>
<g filter="url(#filter1_d_49_63)">
<rect x="25.0001" y="389.061" width="255.736" height="75.9391" rx="12" fill="white"/>
<rect x="25.5001" y="389.561" width="254.736" height="74.9391" rx="11.5" stroke="#F5F5F5"/>
</g>
<circle cx="241.65" cy="427.03" r="25.6853" fill="#FFF8DE"/>
<g clip-path="url(#clip0_49_63)">
<path d="M251.129 438.198H232.171C231.433 438.204 230.719 437.948 230.162 437.477C229.605 437.006 229.244 436.352 229.146 435.64L227.132 420.887C227.084 420.528 227.151 420.163 227.323 419.841C227.495 419.52 227.764 419.258 228.094 419.091C228.425 418.924 228.799 418.859 229.168 418.906C229.537 418.954 229.882 419.11 230.157 419.355L233.544 422.414C233.723 422.585 233.936 422.717 234.17 422.804C234.404 422.89 234.654 422.928 234.904 422.916C235.154 422.904 235.399 422.842 235.623 422.733C235.847 422.624 236.045 422.471 236.206 422.284L240.259 417.628C240.429 417.43 240.642 417.27 240.882 417.161C241.122 417.052 241.385 416.995 241.65 416.995C241.915 416.995 242.177 417.052 242.418 417.161C242.658 417.27 242.871 417.43 243.041 417.628L247.094 422.284C247.253 422.468 247.448 422.617 247.668 422.725C247.887 422.832 248.127 422.895 248.373 422.91C248.618 422.924 248.864 422.889 249.096 422.808C249.327 422.727 249.539 422.601 249.719 422.438L253.107 419.337C253.381 419.093 253.726 418.936 254.095 418.889C254.464 418.842 254.839 418.906 255.169 419.073C255.499 419.24 255.768 419.502 255.941 419.824C256.113 420.145 256.179 420.51 256.131 420.87L254.117 435.605C254.029 436.317 253.676 436.974 253.126 437.452C252.576 437.929 251.866 438.195 251.129 438.198Z" fill="#FFCD1A"/>
</g>
<rect x="48.4519" y="406.929" width="157.462" height="6.70051" rx="3.35025" fill="#FFF8DE"/>
<rect x="128.858" y="431.498" width="77.0558" height="6.70051" rx="3.35025" fill="#FFF8DE"/>
<defs>
<filter id="filter0_d_49_63" x="71.5229" y="0" width="263.299" height="431.929" filterUnits="userSpaceOnUse" color-interpolation-filters="sRGB">
<feFlood flood-opacity="0" result="BackgroundImageFix"/>
<feColorMatrix in="SourceAlpha" type="matrix" values="0 0 0 0 0 0 0 0 0 0 0 0 0 0 0 0 0 0 127 0" result="hardAlpha"/>
<feOffset dx="-10"/>
<feGaussianBlur stdDeviation="12.5"/>
<feComposite in2="hardAlpha" operator="out"/>
<feColorMatrix type="matrix" values="0 0 0 0 0.0151667 0 0 0 0 0 0 0 0 0 0.108333 0 0 0 0.04 0"/>
<feBlend mode="normal" in2="BackgroundImageFix" result="effect1_dropShadow_49_63"/>
<feBlend mode="normal" in="SourceGraphic" in2="effect1_dropShadow_49_63" result="shape"/>
</filter>
<filter id="filter1_d_49_63" x="0.00012207" y="374.061" width="305.736" height="125.939" filterUnits="userSpaceOnUse" color-interpolation-filters="sRGB">
<feFlood flood-opacity="0" result="BackgroundImageFix"/>
<feColorMatrix in="SourceAlpha" type="matrix" values="0 0 0 0 0 0 0 0 0 0 0 0 0 0 0 0 0 0 127 0" result="hardAlpha"/>
<feOffset dy="10"/>
<feGaussianBlur stdDeviation="12.5"/>
<feComposite in2="hardAlpha" operator="out"/>
<feColorMatrix type="matrix" values="0 0 0 0 0.0151667 0 0 0 0 0 0 0 0 0 0.108333 0 0 0 0.04 0"/>
<feBlend mode="normal" in2="BackgroundImageFix" result="effect1_dropShadow_49_63"/>
<feBlend mode="normal" in="SourceGraphic" in2="effect1_dropShadow_49_63" result="shape"/>
</filter>
<clipPath id="clip0_49_63">
<rect width="29.0355" height="21.2183" fill="white" transform="translate(227.132 416.98)"/>
</clipPath>
</defs>
</svg>
