<svg width="38" height="37" viewBox="0 0 38 37" fill="current" xmlns="http://www.w3.org/2000/svg">
<path d="M27.3125 0H10.6875C4.75 0 0 4.625 0 10.4062V17.3438V26.5938C0 32.375 4.75 37 10.6875 37H27.3125C33.25 37 38 32.375 38 26.5938V17.3438V10.4062C38 4.625 33.25 0 27.3125 0ZM19 11.5625C22.9188 11.5625 26.125 14.6844 26.125 18.5C26.125 22.3156 22.9188 25.4375 19 25.4375C15.0813 25.4375 11.875 22.3156 11.875 18.5C11.875 14.6844 15.0813 11.5625 19 11.5625ZM26.125 8.09375C26.125 6.82188 27.1938 5.78125 28.5 5.78125C29.8062 5.78125 30.875 6.82188 30.875 8.09375C30.875 9.36563 29.8062 10.4062 28.5 10.4062C27.1938 10.4062 26.125 9.36563 26.125 8.09375Z" fill="white"/>
</svg>
