<svg width="37" height="32" viewBox="0 0 37 32" fill="none" xmlns="http://www.w3.org/2000/svg">
<path d="M33.3147 0.733792C33.3147 0.733792 36.619 -0.608875 36.3437 2.65202C36.2519 3.99476 35.4259 8.69428 34.7833 13.7774L32.5804 28.8352C32.5804 28.8352 32.3969 31.0411 30.7447 31.4247C29.0924 31.8083 26.6142 30.082 26.1552 29.6983C25.7881 29.4107 19.2712 25.0947 16.9765 22.9847C16.334 22.4093 15.5996 21.2583 17.0682 19.9156L26.706 10.3248C27.8075 9.17387 28.9089 6.48839 24.3195 9.74928L11.4693 18.8607C11.4693 18.8607 10.0006 19.8197 7.24702 18.9566L1.28079 17.0384C1.28079 17.0384 -0.922136 15.5998 2.84118 14.1611C12.02 9.65332 23.3099 5.04969 33.3147 0.733792Z" fill="white"/>
</svg>
